<?xml version="1.0" encoding="utf-8"?>
<!-- Generator: Adobe Illustrator 19.0.1, SVG Export Plug-In . SVG Version: 6.00 Build 0)  -->
<svg version="1.1" id="Layer_1" xmlns="http://www.w3.org/2000/svg" xmlns:xlink="http://www.w3.org/1999/xlink" x="0px" y="0px"
	 viewBox="0 0 437.9 42.8" style="enable-background:new 0 0 437.9 42.8;" xml:space="preserve">
<style type="text/css">
	.st0{fill:#CDCCC8;}
	.st1{stroke:#CDCCC8;stroke-width:2;stroke-miterlimit:10;}
</style>
<g>
	<path class="st0" d="M34.6,3.7H26v24.9c0,3-0.6,5.5-1.6,7.6c-1.1,2.1-2.6,3.7-4.6,4.9c-2,1.1-4.2,1.7-6.7,1.7
		c-4.7,0-9.1-1.6-13.1-4.9l1.7-2.5c3.8,3,7.6,4.4,11.4,4.4c2.8,0,5.1-1,6.9-2.9c1.8-1.9,2.6-4.6,2.6-8.2V3.7H11.4V0.8h23.2V3.7z"/>
	<path class="st0" d="M104.1,3.7h-7.3L83,42.8h-1.3L68.7,9L55.8,42.8h-1.4L40.7,3.7h-7.2V0.8h18.7v2.9h-7.7l11,32.4L68.1,1.8h1.6
		l12.8,34.3L93.2,3.7h-8.3V0.8h19.3V3.7z"/>
	<path class="st0" d="M155.4,3.7h-8.5v22.7c0,3.1-0.7,5.9-2.2,8.3c-1.4,2.5-3.5,4.4-6.2,5.9c-2.7,1.4-5.8,2.1-9.4,2.1
		c-3.6,0-6.7-0.7-9.4-2.1c-2.7-1.4-4.7-3.4-6.2-5.9c-1.4-2.5-2.2-5.3-2.2-8.3V3.7H103V0.8h20.3v2.9h-8.4l-0.1,22.9
		c0,2.5,0.6,4.8,1.8,6.8c1.2,2,2.9,3.6,5.1,4.7c2.2,1.1,4.7,1.7,7.5,1.7c2.8,0,5.3-0.6,7.5-1.7c2.2-1.1,3.9-2.7,5.1-4.7
		c1.2-2,1.8-4.3,1.8-6.8l-0.1-22.9H135V0.8h20.4V3.7z"/>
	<path class="st0" d="M221.6,38.5c-2.2,2.9-5,4.3-8.4,4.3c-3.2,0-5.9-1.2-8.2-3.6c-2.3-2.4-4.2-6-5.8-11l-1.7-4.9h-10.2v15.7h8.5V42
		l-20.4,0.1v-2.9h8.5V3.7h-8.5V0.8h23.2c3,0,5.5,0.5,7.7,1.5c2.1,1,3.8,2.3,4.9,4c1.1,1.7,1.7,3.7,1.7,5.9c0,1.9-0.5,3.6-1.4,5.2
		c-1,1.6-2.4,2.9-4.2,4c-1.8,1.1-4.1,1.7-6.7,1.9l1.7,4.6c1.5,4,3.1,7,4.9,8.8c1.8,1.9,3.8,2.9,6.1,2.9c1.4,0,2.7-0.3,3.7-0.9
		c1-0.6,1.9-1.4,2.7-2.4L221.6,38.5z M187.3,20.8h11.4c2.2,0,4.1-0.4,5.7-1.1c1.6-0.8,2.9-1.8,3.8-3.1c0.9-1.3,1.3-2.7,1.3-4.3
		c0-2.5-1-4.5-2.9-6.1s-4.6-2.4-7.9-2.4h-11.4V20.8z"/>
	<path class="st0" d="M250.7,25c-1.7,1.5-3.5,2.7-5.5,3.5c-1.9,0.8-4.1,1.3-6.5,1.3c-2.6,0-5-0.6-7.3-1.7s-4.1-2.7-5.5-4.8
		c-1.4-2.1-2.1-4.6-2.1-7.6c0-3.3,0.7-6.1,2.2-8.5c1.5-2.4,3.4-4.2,5.7-5.4c2.3-1.2,4.7-1.8,7.3-1.8c2.2,0,4.1,0.4,5.8,1.1
		S248,3,249,4.3c1,1.3,1.5,2.8,1.5,4.5c0,1.7-0.5,3.2-1.6,4.4c-1.1,1.2-2.5,2.1-4.2,2.7c-1.7,0.6-3.6,0.9-5.5,0.9
		c-2,0-4-0.2-5.9-0.7c-1.9-0.5-4-1.1-6.1-1.9c0,0.3-0.1,0.8-0.1,1.4c0,2.2,0.5,4.2,1.6,5.9c1.1,1.7,2.5,3,4.3,4
		c1.8,0.9,3.7,1.4,5.7,1.4c2.2,0,4.2-0.3,5.9-1.1c1.7-0.7,3.2-1.7,4.8-3L250.7,25z M232,5.3c-2.2,1.7-3.7,3.9-4.5,6.8
		c4,1.4,7.7,2.1,11.3,2.1c2.3,0,4.3-0.5,5.9-1.4c1.7-0.9,2.5-2.3,2.5-4c0-1.8-0.7-3.2-2.2-4.3c-1.5-1.1-3.4-1.7-5.8-1.7
		C236.6,2.8,234.2,3.6,232,5.3z"/>
	<path class="st0" d="M269.6,5.2c-2.6,1.5-4.6,3.7-6.1,6.5c-1.5,2.8-2.3,6.1-2.3,9.7c0,3.6,0.7,6.8,2.2,9.6c1.5,2.8,3.5,5,6.1,6.5
		c2.6,1.6,5.4,2.3,8.6,2.3c6.2,0,11.2-2.6,14.9-7.9l2.2,1.9c-1.8,2.6-4,4.7-6.8,6.4c-2.8,1.7-6.2,2.5-10.3,2.5
		c-3.8,0-7.2-0.9-10.3-2.7c-3.1-1.8-5.5-4.3-7.3-7.6c-1.8-3.3-2.7-7-2.7-11.2s0.9-7.9,2.8-11.2c1.8-3.3,4.3-5.8,7.3-7.6
		c3-1.8,6.3-2.7,9.8-2.7c3.3,0,6.2,0.7,8.6,2.1c2.4,1.4,4.4,3.2,5.9,5.5l0.1-6.7h3.1l-0.1,12.6l-1.9,0.1c-1.5-3.4-3.5-6.1-6-7.9
		c-2.5-1.8-5.6-2.8-9.4-2.8C275,2.9,272.2,3.7,269.6,5.2z"/>
	<path class="st0" d="M313.3,3.7v35.4h8.6V42h-20.5v-2.9h8.5V3.7h-8.5V0.8h20.5v2.9H313.3z"/>
	<path class="st0" d="M360.7,4.1c2.8,2.2,4.2,5.2,4.2,9.1c0,4-1.4,7-4.2,9.2c-2.8,2.2-6.6,3.2-11.4,3.2h-10.9v13.5h8.9V42h-20.8
		v-2.9h8.5V3.7h-8.5V0.8h22.8C354.1,0.8,357.9,1.9,360.7,4.1z M358.1,20.4c2.3-1.6,3.4-4,3.4-7.2c0-3.2-1.2-5.5-3.5-7.1
		c-2.3-1.6-5.3-2.4-8.9-2.4h-10.8v19l10.9,0.1C352.9,22.7,355.9,22,358.1,20.4z"/>
	<path class="st0" d="M398.1,25c-1.7,1.5-3.5,2.7-5.5,3.5c-1.9,0.8-4.1,1.3-6.5,1.3c-2.6,0-5-0.6-7.3-1.7s-4.1-2.7-5.5-4.8
		c-1.4-2.1-2.1-4.6-2.1-7.6c0-3.3,0.7-6.1,2.2-8.5c1.5-2.4,3.4-4.2,5.7-5.4c2.3-1.2,4.7-1.8,7.3-1.8c2.2,0,4.1,0.4,5.8,1.1
		s3.1,1.8,4.1,3.1c1,1.3,1.5,2.8,1.5,4.5c0,1.7-0.5,3.2-1.6,4.4c-1.1,1.2-2.5,2.1-4.2,2.7c-1.7,0.6-3.6,0.9-5.5,0.9
		c-2,0-4-0.2-5.9-0.7c-1.9-0.5-4-1.1-6.1-1.9c0,0.3-0.1,0.8-0.1,1.4c0,2.2,0.5,4.2,1.6,5.9c1.1,1.7,2.5,3,4.3,4
		c1.8,0.9,3.7,1.4,5.7,1.4c2.2,0,4.2-0.3,5.9-1.1c1.7-0.7,3.2-1.7,4.8-3L398.1,25z M379.3,5.3c-2.2,1.7-3.7,3.9-4.5,6.8
		c4,1.4,7.7,2.1,11.3,2.1c2.3,0,4.3-0.5,5.9-1.4c1.7-0.9,2.5-2.3,2.5-4c0-1.8-0.7-3.2-2.2-4.3c-1.5-1.1-3.4-1.7-5.8-1.7
		C384,2.8,381.6,3.6,379.3,5.3z"/>
	<path class="st0" d="M434.2,25c2.5,1.9,3.7,4.4,3.7,7.5c0,2-0.6,3.8-1.7,5.3c-1.2,1.5-2.7,2.7-4.7,3.6c-2,0.9-4.3,1.3-6.8,1.3
		c-3.1,0-6-0.7-8.7-2.1c-2.7-1.4-5.1-3.4-7.1-5.9V42h-3.1V29l1.5-0.1c2.1,3.5,4.7,6.2,7.6,8.1c3,1.9,6.2,2.9,9.6,2.9
		c2.8,0,5.2-0.7,7.1-2c1.9-1.3,2.8-3,2.8-5.2c0-2.2-1-4.1-3.1-5.6s-5.4-2.9-10.2-4.1c-10-2.5-14.9-6.8-14.9-12.9
		c0-2,0.5-3.8,1.6-5.3c1.1-1.6,2.5-2.8,4.4-3.6c1.9-0.8,3.9-1.3,6.2-1.3c3,0,5.7,0.6,8.1,1.9c2.4,1.3,4.5,3.2,6.2,5.7V0.8h3.1v12.9
		l-1.4,0.1c-2-3.8-4.3-6.5-6.8-8.3c-2.5-1.8-5.4-2.7-8.7-2.7c-2.7,0-4.9,0.6-6.7,1.9c-1.8,1.3-2.6,3-2.6,5.2c0,2.3,1,4.2,3.1,5.9
		c2.1,1.6,5.3,3,9.7,4.2C427.8,21.5,431.7,23.2,434.2,25z"/>
</g>
<line class="st1" x1="225.7" y1="41.2" x2="250.7" y2="41.2"/>
<line class="st1" x1="372.2" y1="41.2" x2="397.2" y2="41.2"/>
</svg>
