<?xml version="1.0" encoding="utf-8"?>
<!-- Generator: Adobe Illustrator 19.0.1, SVG Export Plug-In . SVG Version: 6.00 Build 0)  -->
<svg version="1.1" id="Layer_1" xmlns="http://www.w3.org/2000/svg" xmlns:xlink="http://www.w3.org/1999/xlink" x="0px" y="0px"
	 viewBox="0 0 1159.3 107.1" style="enable-background:new 0 0 1159.3 107.1;" xml:space="preserve">
<style type="text/css">
	.st0{fill:#D8CCC8;}
</style>
<g>
	<path class="st0" d="M86.4,9.3H65.1v62.2c0,7.4-1.4,13.8-4.1,19.1c-2.8,5.3-6.6,9.4-11.5,12.1c-4.9,2.8-10.5,4.2-16.6,4.2
		c-11.7,0-22.6-4.1-32.9-12.2l4.2-6.3c9.4,7.4,18.9,11.1,28.5,11.1c7.1-0.1,12.8-2.5,17.2-7.2c4.4-4.7,6.6-11.5,6.6-20.4V9.3H28.5
		V2.1h57.9V9.3z"/>
	<path class="st0" d="M260.2,9.3h-18.3L207.6,107h-3.3l-32.5-84.5L139.5,107h-3.6L101.7,9.3h-18V2.1h46.6v7.2H111l27.4,81l31.8-85.8
		h3.9l32.1,85.8l26.7-81h-20.9V2.1h48.2V9.3z"/>
	<path class="st0" d="M388.5,9.3h-21.3v56.9c0,7.7-1.8,14.7-5.4,20.9c-3.6,6.2-8.8,11.1-15.5,14.6c-6.7,3.5-14.5,5.3-23.4,5.3
		c-8.9,0-16.7-1.8-23.4-5.3c-6.7-3.5-11.9-8.4-15.5-14.6c-3.6-6.2-5.4-13.1-5.4-20.9V9.3h-21.3V2.1h50.9v7.2h-21l-0.1,57.2
		c0,6.3,1.5,12,4.5,17c3,5.1,7.2,9,12.7,11.9c5.4,2.8,11.7,4.3,18.7,4.3c7,0,13.2-1.4,18.7-4.3c5.4-2.9,9.7-6.8,12.7-11.8
		c3-5,4.5-10.6,4.5-16.9l-0.2-57.3h-21.1V2.1h51V9.3z"/>
	<path class="st0" d="M553.9,96.1c-5.6,7.2-12.6,10.8-21,10.8c-8,0-14.8-3-20.5-8.9C506.8,92.1,502,83,498,70.6l-4.2-12.1h-25.5
		v39.3h21.3v7.2l-51,0.1V98h21.3V9.3h-21.3V2.1h58c7.4,0,13.8,1.2,19.1,3.7c5.3,2.5,9.4,5.8,12.2,10.1c2.8,4.3,4.2,9.2,4.2,14.7
		c0,4.7-1.2,9.1-3.6,13c-2.4,4-5.9,7.3-10.5,10c-4.6,2.7-10.2,4.2-16.6,4.7l4.3,11.5c3.7,10,7.7,17.4,12.2,22.1
		c4.4,4.8,9.5,7.1,15.3,7.1c3.6,0,6.7-0.8,9.2-2.3c2.5-1.5,4.8-3.6,6.8-6.1L553.9,96.1z M468.3,51.9h28.5c5.5,0,10.3-0.9,14.3-2.9
		c4-1.9,7.2-4.4,9.4-7.6c2.2-3.2,3.3-6.8,3.3-10.8c0-6.2-2.4-11.3-7.2-15.3c-4.8-4-11.4-6-19.8-6h-28.5V51.9z"/>
	<path class="st0" d="M647.7,31V9.3h-60.5v39h30V32.7h7.4v38.1h-7.4V55.2h-30v42.6h60.5V76h8v29h-98.1v-7.2h21.3V9.3h-21.3V2.1h98.1
		V31H647.7z"/>
	<path class="st0" d="M707.5,13c-6.4,3.9-11.5,9.3-15.3,16.4c-3.8,7-5.7,15.1-5.7,24.2c0,9,1.8,17,5.6,24c3.7,7,8.7,12.5,15.1,16.4
		c6.4,3.9,13.5,5.9,21.5,5.9c15.5,0,27.9-6.5,37.3-19.6l5.6,4.8c-4.4,6.4-10.1,11.7-17.1,15.9c-7,4.2-15.6,6.3-25.8,6.3
		c-9.4,0-18-2.2-25.7-6.7c-7.8-4.4-13.9-10.7-18.4-18.9c-4.5-8.1-6.8-17.5-6.8-28s2.3-19.8,6.9-28c4.6-8.1,10.7-14.4,18.3-18.9
		c7.6-4.4,15.8-6.7,24.6-6.7c8.3,0,15.5,1.7,21.6,5.2c6.1,3.5,11,8,14.7,13.7l0.2-16.8h7.8l-0.3,31.5l-4.8,0.3
		c-3.8-8.6-8.8-15.2-15-19.8c-6.2-4.6-14-6.9-23.4-6.9C720.9,7.2,713.9,9.1,707.5,13z"/>
	<path class="st0" d="M816.7,9.3v88.5h21.5v7.2H787v-7.2h21.3V9.3H787V2.1h51.2v7.2H816.7z"/>
	<path class="st0" d="M935.2,10.2c7,5.4,10.6,13,10.6,22.8c0,9.9-3.5,17.5-10.5,23c-7,5.4-16.5,8.1-28.5,8.1h-27.3v33.8h22.4v7.2
		h-52.1v-7.2H871V9.3h-21.3V2.1h57C918.6,2.1,928.1,4.8,935.2,10.2z M928.8,51c5.7-3.9,8.5-9.9,8.5-18c0-7.9-2.9-13.8-8.6-17.8
		c-5.8-3.9-13.2-5.9-22.3-5.9h-27v47.4l27.2,0.1C915.7,56.9,923.1,54.9,928.8,51z"/>
	<path class="st0" d="M1049.5,31V9.3h-60.5v39h30V32.7h7.4v38.1h-7.4V55.2h-30v42.6h60.5V76h8v29h-98.1v-7.2h21.3V9.3h-21.3V2.1
		h98.1V31H1049.5z"/>
	<path class="st0" d="M1150,62.6c6.2,4.8,9.3,11,9.3,18.8c0,5-1.5,9.4-4.3,13.3c-2.9,3.9-6.9,6.9-11.9,9c-5,2.1-10.6,3.2-16.9,3.2
		c-7.7,0-15-1.8-21.8-5.2c-6.8-3.5-12.7-8.4-17.7-14.7v18h-7.7V72.5l3.8-0.2c5.3,8.8,11.7,15.6,19.1,20.3c7.4,4.8,15.4,7.1,23.9,7.1
		c7.1,0,13-1.6,17.7-4.9c4.7-3.2,7-7.6,7-13c0-5.6-2.5-10.3-7.6-14c-5.1-3.8-13.6-7.1-25.5-10.1c-24.9-6.2-37.4-17-37.4-32.2
		c0-5,1.4-9.5,4.1-13.4c2.7-3.9,6.4-6.9,11-9c4.7-2.1,9.8-3.1,15.5-3.1c7.5,0,14.3,1.6,20.3,4.8c6,3.2,11.2,8,15.5,14.2V2.1h7.7
		v32.2l-3.6,0.3c-5-9.4-10.6-16.3-16.9-20.8c-6.2-4.4-13.5-6.7-21.8-6.7c-6.7,0-12.3,1.6-16.7,4.8c-4.4,3.2-6.6,7.5-6.6,12.9
		c0,5.7,2.6,10.6,7.8,14.7c5.2,4.1,13.2,7.6,24.1,10.5C1134,53.7,1143.8,57.9,1150,62.6z"/>
</g>
</svg>
